<svg xmlns="http://www.w3.org/2000/svg" width="221" height="52" fill="none" viewBox="0 0 221 52">
    <rect width="221" height="52" fill="#313131" rx="16"/>
    <path fill="#017AFC" d="M68.214 29.3c0 .432.18.792.54 1.08.372.288.804.432 1.296.432.696 0 1.314-.258 1.854-.774.552-.516.828-1.122.828-1.818-.516-.408-1.236-.612-2.16-.612-.672 0-1.236.162-1.692.486-.444.324-.666.726-.666 1.206zm2.142-6.408c1.224 0 2.19.33 2.898.99.708.648 1.062 1.542 1.062 2.682V32h-1.584v-1.224h-.072c-.684 1.008-1.596 1.512-2.736 1.512-.972 0-1.788-.288-2.448-.864-.648-.576-.972-1.296-.972-2.16 0-.912.342-1.638 1.026-2.178.696-.54 1.62-.81 2.772-.81.984 0 1.794.18 2.43.54v-.378c0-.576-.228-1.062-.684-1.458-.456-.408-.99-.612-1.602-.612-.924 0-1.656.39-2.196 1.17l-1.458-.918c.804-1.152 1.992-1.728 3.564-1.728zm10.24 7.884c.816 0 1.482-.294 1.998-.882.54-.588.81-1.356.81-2.304 0-.924-.27-1.686-.81-2.286-.528-.6-1.194-.9-1.998-.9-.792 0-1.458.3-1.998.9-.54.6-.81 1.362-.81 2.286 0 .936.27 1.698.81 2.286.54.6 1.206.9 1.998.9zm-.27 1.512c-1.152 0-2.142-.456-2.97-1.368-.816-.924-1.224-2.034-1.224-3.33 0-1.296.408-2.406 1.224-3.33.828-.912 1.818-1.368 2.97-1.368.648 0 1.236.138 1.764.414.54.276.954.642 1.242 1.098h.072l-.072-1.224v-4.068h1.656V32h-1.584v-1.224h-.072c-.288.456-.702.822-1.242 1.098-.528.276-1.116.414-1.764.414zm11.093-1.512c.816 0 1.482-.294 1.998-.882.54-.588.81-1.356.81-2.304 0-.924-.27-1.686-.81-2.286-.528-.6-1.194-.9-1.998-.9-.792 0-1.458.3-1.998.9-.54.6-.81 1.362-.81 2.286 0 .936.27 1.698.81 2.286.54.6 1.206.9 1.998.9zm-.27 1.512c-1.152 0-2.142-.456-2.97-1.368-.816-.924-1.224-2.034-1.224-3.33 0-1.296.408-2.406 1.224-3.33.828-.912 1.818-1.368 2.97-1.368.648 0 1.236.138 1.764.414.54.276.954.642 1.242 1.098h.072l-.072-1.224v-4.068h1.656V32h-1.584v-1.224h-.072c-.288.456-.702.822-1.242 1.098-.528.276-1.116.414-1.764.414zm15.676 0c-1.296 0-2.364-.444-3.204-1.332-.84-.888-1.26-2.01-1.26-3.366 0-1.344.408-2.46 1.224-3.348.816-.9 1.86-1.35 3.132-1.35 1.308 0 2.346.426 3.114 1.278.78.84 1.17 2.022 1.17 3.546l-.018.18h-6.93c.024.864.312 1.56.864 2.088s1.212.792 1.98.792c1.056 0 1.884-.528 2.484-1.584l1.476.72c-.396.744-.948 1.326-1.656 1.746-.696.42-1.488.63-2.376.63zm-2.646-5.76h5.058c-.048-.612-.3-1.116-.756-1.512-.444-.408-1.044-.612-1.8-.612-.624 0-1.164.192-1.62.576-.444.384-.738.9-.882 1.548zM114.712 32h-1.656v-8.82h1.584v1.224h.072c.252-.432.636-.792 1.152-1.08.528-.288 1.05-.432 1.566-.432.648 0 1.218.15 1.71.45.492.3.852.714 1.08 1.242.732-1.128 1.746-1.692 3.042-1.692 1.02 0 1.806.312 2.358.936.552.624.828 1.512.828 2.664V32h-1.656v-5.256c0-.828-.15-1.422-.45-1.782-.3-.372-.804-.558-1.512-.558-.636 0-1.17.27-1.602.81-.432.54-.648 1.176-.648 1.908V32h-1.656v-5.256c0-.828-.15-1.422-.45-1.782-.3-.372-.804-.558-1.512-.558-.636 0-1.17.27-1.602.81-.432.54-.648 1.176-.648 1.908V32zm18.532-1.224c.792 0 1.458-.3 1.998-.9.54-.588.81-1.35.81-2.286 0-.924-.27-1.686-.81-2.286-.54-.6-1.206-.9-1.998-.9-.804 0-1.476.3-2.016.9-.528.6-.792 1.362-.792 2.286 0 .936.264 1.704.792 2.304.54.588 1.212.882 2.016.882zm.27 1.512c-.648 0-1.242-.138-1.782-.414-.528-.276-.936-.642-1.224-1.098h-.072l.072 1.224v3.888h-1.656V23.18h1.584v1.224h.072c.288-.456.696-.822 1.224-1.098.54-.276 1.134-.414 1.782-.414 1.164 0 2.148.456 2.952 1.368.828.924 1.242 2.034 1.242 3.33 0 1.308-.414 2.418-1.242 3.33-.804.912-1.788 1.368-2.952 1.368zm7.731-13.176V32h-1.656V19.112h1.656zm1.966 8.478c0-1.356.426-2.478 1.278-3.366.864-.888 1.95-1.332 3.258-1.332s2.388.444 3.24 1.332c.864.888 1.296 2.01 1.296 3.366 0 1.368-.432 2.49-1.296 3.366-.852.888-1.932 1.332-3.24 1.332-1.308 0-2.394-.444-3.258-1.332-.852-.888-1.278-2.01-1.278-3.366zm1.656 0c0 .948.276 1.716.828 2.304.552.588 1.236.882 2.052.882.816 0 1.5-.294 2.052-.882.552-.588.828-1.356.828-2.304 0-.936-.276-1.698-.828-2.286-.564-.6-1.248-.9-2.052-.9s-1.488.3-2.052.9c-.552.588-.828 1.35-.828 2.286zm16.992-4.41l-5.526 12.708h-1.71l2.052-4.446-3.636-8.262h1.8l2.628 6.336h.036l2.556-6.336h1.8zm5.23 9.108c-1.296 0-2.364-.444-3.204-1.332-.84-.888-1.26-2.01-1.26-3.366 0-1.344.408-2.46 1.224-3.348.816-.9 1.86-1.35 3.132-1.35 1.308 0 2.346.426 3.114 1.278.78.84 1.17 2.022 1.17 3.546l-.018.18h-6.93c.024.864.312 1.56.864 2.088s1.212.792 1.98.792c1.056 0 1.884-.528 2.484-1.584l1.476.72c-.396.744-.948 1.326-1.656 1.746-.696.42-1.488.63-2.376.63zm-2.646-5.76h5.058c-.048-.612-.3-1.116-.756-1.512-.444-.408-1.044-.612-1.8-.612-.624 0-1.164.192-1.62.576-.444.384-.738.9-.882 1.548zm12.924 5.76c-1.296 0-2.364-.444-3.204-1.332-.84-.888-1.26-2.01-1.26-3.366 0-1.344.408-2.46 1.224-3.348.816-.9 1.86-1.35 3.132-1.35 1.308 0 2.346.426 3.114 1.278.78.84 1.17 2.022 1.17 3.546l-.018.18h-6.93c.024.864.312 1.56.864 2.088s1.212.792 1.98.792c1.056 0 1.884-.528 2.484-1.584l1.476.72c-.396.744-.948 1.326-1.656 1.746-.696.42-1.488.63-2.376.63zm-2.646-5.76h5.058c-.048-.612-.3-1.116-.756-1.512-.444-.408-1.044-.612-1.8-.612-.624 0-1.164.192-1.62.576-.444.384-.738.9-.882 1.548zM53.808 25.112v2.432h-5.792v5.792h-2.432v-5.792h-5.792v-2.432h5.792V19.32h2.432v5.792h5.792z"/>
</svg>
