<svg xmlns="http://www.w3.org/2000/svg" width="49" height="318" fill="none" viewBox="0 0 49 318">
    <path fill="#fff" d="M22 22H27V318H22z"/>
    <circle cx="24.5" cy="24.5" r="24.5" fill="#fff"/>
    <path fill="#000" d="M23.648 21.8c-.384 0-.744.048-1.104.096l3.816-5.736h-2.376l-5.376 8.232c-.648.936-1.008 2.064-1.008 3.24 0 3.144 2.568 5.808 6.048 5.808 3.432 0 6-2.664 6-5.808 0-3.12-2.568-5.832-6-5.832zm0 9.696c-2.304 0-3.984-1.8-3.984-3.864s1.68-3.888 3.984-3.888c2.256 0 3.96 1.824 3.96 3.888s-1.704 3.864-3.96 3.864z"/>
</svg>
