<svg xmlns="http://www.w3.org/2000/svg" width="49" height="286" fill="none" viewBox="0 0 49 286">
    <path fill="#fff" d="M22 5H27V286H22z"/>
    <circle cx="24.5" cy="24.5" r="24.5" fill="#fff"/>
    <path fill="#000" d="M27.624 24.32c1.224-.744 2.064-1.968 2.064-3.648 0-2.568-2.112-4.752-5.304-4.752-3.768 0-6.024 2.52-6.024 5.592h2.064c0-2.136 1.608-3.648 3.864-3.648 2.064 0 3.36 1.224 3.36 2.904 0 1.608-1.2 2.64-3.336 2.64h-1.32v1.968h1.32c2.112 0 4.056.744 4.056 2.904 0 1.8-1.416 3.216-3.84 3.216-2.256 0-4.104-1.392-4.104-3.648H18.36c0 3.072 2.496 5.592 6.264 5.592 3.672 0 5.784-2.352 5.784-5.04 0-2.04-1.224-3.36-2.784-4.08z"/>
</svg>
