<svg xmlns="http://www.w3.org/2000/svg" width="49" height="245" fill="none" viewBox="0 0 49 245">
    <path fill="#fff" d="M22 7H27V245H22z"/>
    <circle cx="24.5" cy="24.5" r="24.5" fill="#fff"/>
    <path fill="#000" d="M24.792 21.704c-1.368 0-2.664.36-3.744 1.056l.72-4.656h7.44V16.16H20.04l-1.488 9.72h2.016c.576-1.656 2.352-2.328 3.792-2.328 2.208 0 4.008 1.392 4.008 3.936 0 2.304-1.848 3.888-4.008 3.888-2.352 0-3.912-1.56-3.936-3.528H18.36c0 2.976 2.256 5.592 6.024 5.592 3.504 0 6.024-2.664 6.024-5.856 0-3.648-2.544-5.88-5.616-5.88z"/>
</svg>
