<svg xmlns="http://www.w3.org/2000/svg" width="70" height="307" fill="none" viewBox="0 0 70 307">
    <path stroke="#fff" d="M35.5 24L35.5 286"/>
    <circle cx="35" cy="35" r="35" fill="#fff"/>
    <path fill="#000" d="M36.272 44.408V24.28l-7.136 1.728v2.752l4.384-1.088v16.736h-5.28V47h13.312v-2.592h-5.28z"/>
    <circle cx="35" cy="155" r="34.5" fill="#fff" stroke="#000"/>
    <path fill="#000" d="M42.688 151.064c0-4.288-3.2-7.104-7.424-7.104-4.928 0-8.384 3.264-8.384 7.36h2.752c0-2.72 2.24-4.768 5.6-4.768 2.72 0 4.704 1.856 4.704 4.416 0 5.984-13.056 6.784-13.056 13.44V167h15.808v-2.592H29.664c0-4.672 13.024-5.504 13.024-13.344z"/>
    <circle cx="35" cy="272" r="35" fill="#fff"/>
    <path fill="#000" d="M39.232 272.16c1.632-.992 2.752-2.624 2.752-4.864 0-3.424-2.816-6.336-7.072-6.336-5.024 0-8.032 3.36-8.032 7.456h2.752c0-2.848 2.144-4.864 5.152-4.864 2.752 0 4.48 1.632 4.48 3.872 0 2.144-1.6 3.52-4.448 3.52h-1.76v2.624h1.76c2.816 0 5.408.992 5.408 3.872 0 2.4-1.888 4.288-5.12 4.288-3.008 0-5.472-1.856-5.472-4.864H26.88c0 4.096 3.328 7.456 8.352 7.456 4.896 0 7.712-3.136 7.712-6.72 0-2.72-1.632-4.48-3.712-5.44z"/>
</svg>
