<svg xmlns="http://www.w3.org/2000/svg" width="132" height="20" fill="none" viewBox="0 0 132 20">
    <path fill="#FF2F2F" d="M122 1.667c-4.6 0-8.333 3.733-8.333 8.333s3.733 8.334 8.333 8.334 8.333-3.734 8.333-8.334S126.6 1.667 122 1.667zm.833 12.5h-1.666V12.5h1.666v1.667zm0-3.333h-1.666v-5h1.666v5z"/>
    <path fill="#FF4646" d="M1.655 6.92c.336 0 .588-.264.588-.588 0-.336-.252-.588-.588-.588-.324 0-.588.252-.588.588 0 .324.264.588.588.588zm.516 1.008H1.14V14h1.032V7.928zm5.356-.12c-1.044 0-1.836.528-2.388 1.176L5.09 7.928h-.972V14H5.15v-3.096c0-.864.576-2.124 2.016-2.124.936 0 1.584.576 1.584 2.1V14h1.032v-3.552c0-1.716-.852-2.64-2.256-2.64zm8.332.12l-2.016 5.004-2.016-5.004h-1.152L13.255 14h1.176l2.58-6.072H15.86zm2 3.024c0 1.752 1.331 3.168 3.071 3.168 1.14 0 2.064-.648 2.448-1.5l.048 1.38h.984V7.928h-.984l-.048 1.38c-.384-.852-1.308-1.5-2.448-1.5-1.74 0-3.072 1.416-3.072 3.144zm1.031 0c0-1.176.96-2.172 2.196-2.172 1.248 0 2.184.996 2.184 2.172 0 1.2-.936 2.196-2.184 2.196-1.236 0-2.196-.996-2.196-2.196zM27.301 5H26.27v9h1.032V5zm2.276 1.92c.335 0 .587-.264.587-.588 0-.336-.252-.588-.588-.588-.323 0-.588.252-.588.588 0 .324.265.588.588.588zm.515 1.008h-1.031V14h1.032V7.928zm1.725 3.024c0 1.752 1.332 3.168 3.072 3.168 1.14 0 2.064-.648 2.448-1.5l.048 1.38h.984V5h-1.032v4.308c-.384-.852-1.308-1.5-2.448-1.5-1.74 0-3.072 1.416-3.072 3.144zm1.032 0c0-1.176.96-2.172 2.196-2.172 1.248 0 2.184.996 2.184 2.172 0 1.2-.936 2.196-2.184 2.196-1.236 0-2.196-.996-2.196-2.196zm11.208 5.808h1.032v-4.14c.372.864 1.296 1.5 2.436 1.5 1.74 0 3.084-1.416 3.084-3.168 0-1.728-1.344-3.144-3.084-3.144-1.14 0-2.064.636-2.436 1.5l-.06-1.38h-.972v8.832zm1.128-5.808c0-1.176.948-2.172 2.184-2.172 1.248 0 2.208.996 2.208 2.172 0 1.2-.96 2.196-2.208 2.196-1.236 0-2.184-.996-2.184-2.196zm6.662 0c0 1.752 1.332 3.168 3.072 3.168 1.14 0 2.064-.648 2.448-1.5l.048 1.38h.984V7.928h-.984l-.048 1.38c-.384-.852-1.308-1.5-2.448-1.5-1.74 0-3.072 1.416-3.072 3.144zm1.032 0c0-1.176.96-2.172 2.196-2.172 1.248 0 2.184.996 2.184 2.172 0 1.2-.936 2.196-2.184 2.196-1.236 0-2.196-.996-2.196-2.196zm7.203 1.368c.144 1.164 1.14 1.8 2.532 1.8 1.332 0 2.304-.636 2.304-1.644 0-.912-.648-1.452-1.788-1.872-1.212-.468-1.824-.624-1.824-1.176 0-.492.564-.756 1.056-.756.552 0 1.08.3 1.152.852h1.02c-.06-.984-.912-1.716-2.196-1.716-1.044 0-2.052.6-2.052 1.62 0 .96.816 1.416 1.704 1.716 1.272.48 1.896.624 1.896 1.308 0 .48-.516.792-1.248.792-.852 0-1.368-.372-1.524-.924h-1.032zm5.95 0c.143 1.164 1.14 1.8 2.531 1.8 1.332 0 2.304-.636 2.304-1.644 0-.912-.648-1.452-1.788-1.872-1.212-.468-1.824-.624-1.824-1.176 0-.492.564-.756 1.056-.756.552 0 1.08.3 1.152.852h1.02c-.06-.984-.912-1.716-2.196-1.716-1.044 0-2.052.6-2.052 1.62 0 .96.816 1.416 1.704 1.716 1.272.48 1.896.624 1.896 1.308 0 .48-.516.792-1.248.792-.852 0-1.368-.372-1.524-.924h-1.032zm14.366-4.392l-1.644 4.812-1.644-4.812h-1.092l-1.632 4.812-1.644-4.812H71.65L73.846 14h1.068l1.656-4.56L78.214 14h1.08l2.196-6.072h-1.092zm5.167 6.192c1.848 0 3.216-1.416 3.216-3.168 0-1.728-1.368-3.144-3.216-3.144-1.836 0-3.228 1.416-3.228 3.144 0 1.752 1.392 3.168 3.228 3.168zm0-.972c-1.236 0-2.196-.996-2.196-2.196 0-1.176.96-2.172 2.196-2.172 1.248 0 2.184.996 2.184 2.172 0 1.2-.936 2.196-2.184 2.196zm7.197-5.34c-.564 0-1.032.372-1.404.888l-.048-.768h-.972V14h1.032v-3.024c0-1.14.396-2.196 1.332-2.196.288 0 .528.108.648.192l.18-.9c-.132-.12-.396-.264-.768-.264zm1.522 3.144c0 1.752 1.332 3.168 3.072 3.168 1.14 0 2.064-.648 2.448-1.5l.048 1.38h.984V5h-1.032v4.308c-.384-.852-1.308-1.5-2.448-1.5-1.74 0-3.072 1.416-3.072 3.144zm1.032 0c0-1.176.96-2.172 2.196-2.172 1.248 0 2.184.996 2.184 2.172 0 1.2-.936 2.196-2.184 2.196-1.236 0-2.196-.996-2.196-2.196z"/>
</svg>
