<svg xmlns="http://www.w3.org/2000/svg" width="400" height="59" fill="none" viewBox="0 0 400 59">
    <rect width="400" height="59" fill="#963232" rx="16"/>
    <path fill="#fff" d="M170.52 35.38V22.8h-1.72V37h7.52v-1.62h-5.8zm12.658 1.82c3.08 0 5.36-2.36 5.36-5.28 0-2.88-2.28-5.24-5.36-5.24-3.06 0-5.38 2.36-5.38 5.24 0 2.92 2.32 5.28 5.38 5.28zm0-1.62c-2.06 0-3.66-1.66-3.66-3.66 0-1.96 1.6-3.62 3.66-3.62 2.08 0 3.64 1.66 3.64 3.62 0 2-1.56 3.66-3.64 3.66zm11.682-.22c-1.22 0-1.96-.16-1.96-.68 0-.26.22-.48.58-.64.46.16.98.24 1.52.24 2.36 0 4.18-1.64 4.18-3.8 0-.82-.26-1.56-.72-2.16l1.18.1v-1.54l-2.64.24c-.6-.28-1.28-.44-2-.44-2.38 0-4.18 1.62-4.18 3.8 0 1.28.62 2.36 1.62 3.04-.58.28-1.16.76-1.16 1.44 0 .56.38 1 .92 1.3-.74.46-1.38 1.2-1.38 2.32 0 2.08 2.04 3.22 4.42 3.22s4.42-1.14 4.42-3.22c0-1.96-1.8-3.22-4.8-3.22zm.14-7.24c1.42 0 2.54 1 2.54 2.36 0 1.34-1.12 2.34-2.54 2.34-1.4 0-2.56-1-2.56-2.34 0-1.36 1.16-2.36 2.56-2.36zm.24 12.24c-1.66 0-2.8-.64-2.8-1.82 0-.78.76-1.48 1.38-1.76.2.02.38.04.58.04 2.12 0 3.64.46 3.64 1.78 0 1.16-1.16 1.76-2.8 1.76zm11.853-3.16c3.08 0 5.36-2.36 5.36-5.28 0-2.88-2.28-5.24-5.36-5.24-3.06 0-5.38 2.36-5.38 5.24 0 2.92 2.32 5.28 5.38 5.28zm0-1.62c-2.06 0-3.66-1.66-3.66-3.66 0-1.96 1.6-3.62 3.66-3.62 2.08 0 3.64 1.66 3.64 3.62 0 2-1.56 3.66-3.64 3.66zm15.477-8.7v5.16h-.02c0 1.44-.96 3.54-3.36 3.54-1.56 0-2.64-.96-2.64-3.5v-5.2h-1.72v5.92c0 2.86 1.42 4.4 3.76 4.4 1.76 0 3.06-.88 4-1.98l.06 1.78h1.62V26.88h-1.7zm9.515 0h-2.1v-3h-1.7v3h-1.44v1.62h1.44V37h1.7v-8.5h2.1v-1.62z"/>
</svg>
