<svg xmlns="http://www.w3.org/2000/svg" width="100" height="69" fill="none" viewBox="0 0 100 69">
    <g clip-path="url(#prefix__clip0)" filter="url(#prefix__filter0_d)">
        <path fill="url(#prefix__paint0_linear)" d="M65.58 60.49c-.145 0-.288-.028-.422-.083-.133-.056-.255-.137-.356-.24l-14.283-14.28 14.155-14.161c.17-.17.306-.372.398-.595.092-.222.14-.46.14-.701 0-.241-.048-.48-.14-.702-.092-.223-.227-.425-.398-.595L50.52 14.978 64.802.697c.102-.102.223-.184.356-.239.134-.055.277-.084.421-.084.145 0 .288.029.421.084.134.055.255.137.357.239l28.955 28.968c.206.207.321.487.321.778 0 .292-.115.571-.321.778L66.357 60.167c-.102.103-.223.184-.357.24-.133.055-.276.083-.42.083zm-31.157 0c-.145 0-.288-.028-.422-.083-.134-.056-.255-.137-.357-.24L4.69 31.211c-.103-.102-.184-.224-.24-.357-.055-.133-.083-.277-.083-.421 0-.145.028-.288.084-.421.055-.134.136-.255.239-.357L33.644.702c.102-.102.223-.184.357-.239.134-.055.277-.084.421-.084.145 0 .288.029.422.084.133.055.255.137.357.239l14.28 14.28-14.153 14.156c-.17.17-.306.373-.398.595-.092.223-.14.46-.14.702 0 .24.048.479.14.701.093.223.228.425.398.595l14.154 14.155L35.2 60.167c-.102.103-.223.184-.357.24-.133.055-.276.083-.42.083z"/>
        <path fill="#000" d="M65.58 60.123c.192-.001.377-.078.514-.215l28.959-28.955c.135-.137.211-.322.211-.515s-.076-.378-.212-.515L66.099.961C65.96.826 65.775.75 65.582.75c-.192 0-.377.076-.515.211L51.044 14.983 64.94 28.879c.413.413.644.972.644 1.556 0 .583-.231 1.142-.644 1.555L51.044 45.886l14.023 14.022c.137.137.322.214.516.215h-.004zm-31.154 0c.194-.001.379-.078.516-.215l14.021-14.022L35.07 31.99c-.205-.204-.367-.446-.478-.713-.11-.267-.168-.553-.168-.842 0-.29.057-.575.168-.842.11-.267.273-.51.478-.714l13.894-13.896L34.942.96c-.138-.137-.325-.214-.52-.214-.194 0-.381.077-.52.214L4.95 29.916c-.136.137-.212.322-.212.515s.076.378.212.515l28.953 28.962c.137.137.322.214.515.215h.008zm31.148.733c-.387-.001-.757-.156-1.03-.43l-14.542-14.54 14.422-14.421c.274-.275.429-.648.429-1.037 0-.389-.155-.762-.43-1.037L50.003 14.969 64.544.43C64.819.154 65.192 0 65.58 0c.389 0 .762.154 1.037.429L95.57 29.398c.275.275.429.648.429 1.037 0 .389-.154.761-.429 1.037L66.616 60.427c-.136.136-.297.244-.475.318-.178.074-.37.111-.562.11h-.005zm-31.156 0c-.193 0-.384-.037-.562-.111-.179-.074-.34-.182-.477-.318L4.431 31.472c-.137-.136-.245-.298-.319-.476-.074-.178-.112-.369-.112-.561 0-.193.038-.384.112-.562.074-.178.182-.34.32-.475L33.383.443c.276-.275.65-.43 1.038-.43.39 0 .763.155 1.038.43L50 14.983 35.587 29.404c-.275.276-.429.649-.429 1.038 0 .388.154.761.43 1.037L50 45.9 35.47 60.427c-.137.137-.3.246-.48.32-.18.073-.372.11-.566.109h-.005z"/>
        <path fill="url(#prefix__paint1_linear)" stroke="#000" stroke-miterlimit="10" stroke-width="2" d="M49.98 20.419l-8.674 8.637s-1.144 1.408 0 2.919c1.143 1.51 8.661 8.721 8.661 8.721l8.774-8.799s1.062-1.473-.11-2.812c-1.173-1.339-8.652-8.666-8.652-8.666z"/>
    </g>
    <defs>
        <linearGradient id="prefix__paint0_linear" x1="49.288" x2="49.288" y1="-.779" y2="59.993" gradientUnits="userSpaceOnUse">
            <stop stop-color="#1365D5"/>
            <stop offset="1" stop-color="#00A7FF"/>
        </linearGradient>
        <linearGradient id="prefix__paint1_linear" x1="49.947" x2="49.947" y1="20.865" y2="40.993" gradientUnits="userSpaceOnUse">
            <stop stop-color="#04C66C"/>
            <stop offset="1" stop-color="#00FF9D"/>
        </linearGradient>
        <clipPath id="prefix__clip0">
            <path fill="#fff" d="M0 0H92V60.856H0z" transform="translate(4)"/>
        </clipPath>
        <filter id="prefix__filter0_d" width="100" height="68.856" x="0" y="0" color-interpolation-filters="sRGB" filterUnits="userSpaceOnUse">
            <feFlood flood-opacity="0" result="BackgroundImageFix"/>
            <feColorMatrix in="SourceAlpha" values="0 0 0 0 0 0 0 0 0 0 0 0 0 0 0 0 0 0 127 0"/>
            <feOffset dy="4"/>
            <feGaussianBlur stdDeviation="2"/>
            <feColorMatrix values="0 0 0 0 0 0 0 0 0 0 0 0 0 0 0 0 0 0 0.25 0"/>
            <feBlend in2="BackgroundImageFix" result="effect1_dropShadow"/>
            <feBlend in="SourceGraphic" in2="effect1_dropShadow" result="shape"/>
        </filter>
    </defs>
</svg>
