<svg xmlns="http://www.w3.org/2000/svg" width="33" height="33" fill="none" viewBox="0 0 33 33">
    <g clip-path="url(#clip0)">
        <path fill="#02C168" d="M8.25 24.75c0 .756.619 1.375 1.375 1.375H11v4.813c0 1.14.921 2.062 2.063 2.062 1.14 0 2.062-.921 2.062-2.063v-4.812h2.75v4.813c0 1.14.921 2.062 2.063 2.062 1.14 0 2.062-.921 2.062-2.063v-4.812h1.375c.756 0 1.375-.619 1.375-1.375V11H8.25v13.75zM4.812 11c-1.14 0-2.062.921-2.062 2.063v9.624c0 1.142.921 2.063 2.063 2.063 1.14 0 2.062-.921 2.062-2.063v-9.625c0-1.14-.921-2.062-2.063-2.062zm23.375 0c-1.14 0-2.062.921-2.062 2.063v9.624c0 1.142.921 2.063 2.063 2.063 1.14 0 2.062-.921 2.062-2.063v-9.625c0-1.14-.921-2.062-2.063-2.062zm-6.833-8.03l1.787-1.788c.275-.274.275-.7 0-.976-.275-.275-.701-.275-.976 0L20.13 2.241c-1.086-.55-2.324-.866-3.63-.866-1.32 0-2.557.316-3.658.866L10.794.206c-.275-.275-.702-.275-.976 0-.275.275-.275.701 0 .977l1.8 1.8C9.585 4.484 8.25 6.89 8.25 9.626h16.5c0-2.736-1.334-5.156-3.396-6.655zM13.75 6.875h-1.375V5.5h1.375v1.375zm6.875 0H19.25V5.5h1.375v1.375z"/>
    </g>
    <defs>
        <clipPath id="clip0">
            <path fill="#fff" d="M0 0H33V33H0z"/>
        </clipPath>
    </defs>
</svg>
