<svg xmlns="http://www.w3.org/2000/svg" width="570" height="93" fill="none" viewBox="0 0 570 93">
    <path fill="#28A85A" d="M0 0H570V93H0z"/>
    <path fill="#fff" d="M119.213 38.78V44h-1.656V31.112h4.392c1.116 0 2.064.372 2.844 1.116.792.744 1.188 1.65 1.188 2.718 0 1.092-.396 2.004-1.188 2.736-.768.732-1.716 1.098-2.844 1.098h-2.736zm0-6.084v4.5h2.772c.66 0 1.206-.222 1.638-.666.444-.444.666-.972.666-1.584 0-.6-.222-1.122-.666-1.566-.432-.456-.978-.684-1.638-.684h-2.772zm9.61 8.604c0 .432.18.792.54 1.08.372.288.804.432 1.296.432.696 0 1.314-.258 1.854-.774.552-.516.828-1.122.828-1.818-.516-.408-1.236-.612-2.16-.612-.672 0-1.236.162-1.692.486-.444.324-.666.726-.666 1.206zm2.142-6.408c1.224 0 2.19.33 2.898.99.708.648 1.062 1.542 1.062 2.682V44h-1.584v-1.224h-.072c-.684 1.008-1.596 1.512-2.736 1.512-.972 0-1.788-.288-2.448-.864-.648-.576-.972-1.296-.972-2.16 0-.912.342-1.638 1.026-2.178.696-.54 1.62-.81 2.772-.81.984 0 1.794.18 2.43.54v-.378c0-.576-.228-1.062-.684-1.458-.456-.408-.99-.612-1.602-.612-.924 0-1.656.39-2.196 1.17l-1.458-.918c.804-1.152 1.992-1.728 3.564-1.728zm13.03 6.66c0 .768-.336 1.416-1.008 1.944-.672.528-1.518.792-2.538.792-.888 0-1.668-.228-2.34-.684-.672-.468-1.152-1.08-1.44-1.836l1.476-.63c.216.528.528.942.936 1.242.42.288.876.432 1.368.432.528 0 .966-.114 1.314-.342.36-.228.54-.498.54-.81 0-.564-.432-.978-1.296-1.242l-1.512-.378c-1.716-.432-2.574-1.26-2.574-2.484 0-.804.324-1.446.972-1.926.66-.492 1.5-.738 2.52-.738.78 0 1.482.186 2.106.558.636.372 1.08.87 1.332 1.494l-1.476.612c-.168-.372-.444-.66-.828-.864-.372-.216-.792-.324-1.26-.324-.432 0-.822.108-1.17.324-.336.216-.504.48-.504.792 0 .504.474.864 1.422 1.08l1.332.342c1.752.432 2.628 1.314 2.628 2.646zm8.731 0c0 .768-.336 1.416-1.008 1.944-.672.528-1.518.792-2.538.792-.888 0-1.668-.228-2.34-.684-.672-.468-1.152-1.08-1.44-1.836l1.476-.63c.216.528.528.942.936 1.242.42.288.876.432 1.368.432.528 0 .966-.114 1.314-.342.36-.228.54-.498.54-.81 0-.564-.432-.978-1.296-1.242l-1.512-.378c-1.716-.432-2.574-1.26-2.574-2.484 0-.804.324-1.446.972-1.926.66-.492 1.5-.738 2.52-.738.78 0 1.482.186 2.106.558.636.372 1.08.87 1.332 1.494l-1.476.612c-.168-.372-.444-.66-.828-.864-.372-.216-.792-.324-1.26-.324-.432 0-.822.108-1.17.324-.336.216-.504.48-.504.792 0 .504.474.864 1.422 1.08l1.332.342c1.752.432 2.628 1.314 2.628 2.646zM167.2 35.18L164.356 44h-1.692l-2.196-6.768L158.29 44h-1.674l-2.844-8.82h1.728l1.962 6.66h.018l2.178-6.66h1.71l2.178 6.66h.018l1.944-6.66h1.692zm.938 4.41c0-1.356.426-2.478 1.278-3.366.864-.888 1.95-1.332 3.258-1.332s2.388.444 3.24 1.332c.864.888 1.296 2.01 1.296 3.366 0 1.368-.432 2.49-1.296 3.366-.852.888-1.932 1.332-3.24 1.332-1.308 0-2.394-.444-3.258-1.332-.852-.888-1.278-2.01-1.278-3.366zm1.656 0c0 .948.276 1.716.828 2.304.552.588 1.236.882 2.052.882.816 0 1.5-.294 2.052-.882.552-.588.828-1.356.828-2.304 0-.936-.276-1.698-.828-2.286-.564-.6-1.248-.9-2.052-.9s-1.488.3-2.052.9c-.552.588-.828 1.35-.828 2.286zM180.735 44h-1.656v-8.82h1.584v1.44h.072c.168-.468.51-.864 1.026-1.188.528-.336 1.044-.504 1.548-.504.48 0 .888.072 1.224.216l-.504 1.602c-.204-.084-.528-.126-.972-.126-.624 0-1.17.252-1.638.756-.456.504-.684 1.092-.684 1.764V44zm8.838-1.224c.816 0 1.482-.294 1.998-.882.54-.588.81-1.356.81-2.304 0-.924-.27-1.686-.81-2.286-.528-.6-1.194-.9-1.998-.9-.792 0-1.458.3-1.998.9-.54.6-.81 1.362-.81 2.286 0 .936.27 1.698.81 2.286.54.6 1.206.9 1.998.9zm-.27 1.512c-1.152 0-2.142-.456-2.97-1.368-.816-.924-1.224-2.034-1.224-3.33 0-1.296.408-2.406 1.224-3.33.828-.912 1.818-1.368 2.97-1.368.648 0 1.236.138 1.764.414.54.276.954.642 1.242 1.098h.072l-.072-1.224v-4.068h1.656V44h-1.584v-1.224h-.072c-.288.456-.702.822-1.242 1.098-.528.276-1.116.414-1.764.414zm18.466-2.736c0 .768-.336 1.416-1.008 1.944-.672.528-1.518.792-2.538.792-.888 0-1.668-.228-2.34-.684-.672-.468-1.152-1.08-1.44-1.836l1.476-.63c.216.528.528.942.936 1.242.42.288.876.432 1.368.432.528 0 .966-.114 1.314-.342.36-.228.54-.498.54-.81 0-.564-.432-.978-1.296-1.242l-1.512-.378c-1.716-.432-2.574-1.26-2.574-2.484 0-.804.324-1.446.972-1.926.66-.492 1.5-.738 2.52-.738.78 0 1.482.186 2.106.558.636.372 1.08.87 1.332 1.494l-1.476.612c-.168-.372-.444-.66-.828-.864-.372-.216-.792-.324-1.26-.324-.432 0-.822.108-1.17.324-.336.216-.504.48-.504.792 0 .504.474.864 1.422 1.08l1.332.342c1.752.432 2.628 1.314 2.628 2.646zM217.491 44h-1.584v-1.224h-.072c-.252.432-.642.792-1.17 1.08-.516.288-1.056.432-1.62.432-1.08 0-1.914-.306-2.502-.918-.576-.624-.864-1.506-.864-2.646V35.18h1.656v5.436c.036 1.44.762 2.16 2.178 2.16.66 0 1.212-.264 1.656-.792.444-.54.666-1.182.666-1.926V35.18h1.656V44zm6.5.288c-1.308 0-2.394-.444-3.258-1.332-.852-.912-1.278-2.034-1.278-3.366 0-1.356.426-2.478 1.278-3.366.864-.888 1.95-1.332 3.258-1.332.9 0 1.686.228 2.358.684.672.444 1.176 1.062 1.512 1.854l-1.512.63c-.468-1.104-1.29-1.656-2.466-1.656-.756 0-1.41.306-1.962.918-.54.612-.81 1.368-.81 2.268 0 .9.27 1.656.81 2.268.552.612 1.206.918 1.962.918 1.212 0 2.064-.552 2.556-1.656l1.476.63c-.324.792-.834 1.416-1.53 1.872-.684.444-1.482.666-2.394.666zm9.856 0c-1.308 0-2.394-.444-3.258-1.332-.852-.912-1.278-2.034-1.278-3.366 0-1.356.426-2.478 1.278-3.366.864-.888 1.95-1.332 3.258-1.332.9 0 1.686.228 2.358.684.672.444 1.176 1.062 1.512 1.854l-1.512.63c-.468-1.104-1.29-1.656-2.466-1.656-.756 0-1.41.306-1.962.918-.54.612-.81 1.368-.81 2.268 0 .9.27 1.656.81 2.268.552.612 1.206.918 1.962.918 1.212 0 2.064-.552 2.556-1.656l1.476.63c-.324.792-.834 1.416-1.53 1.872-.684.444-1.482.666-2.394.666zm9.784 0c-1.296 0-2.364-.444-3.204-1.332-.84-.888-1.26-2.01-1.26-3.366 0-1.344.408-2.46 1.224-3.348.816-.9 1.86-1.35 3.132-1.35 1.308 0 2.346.426 3.114 1.278.78.84 1.17 2.022 1.17 3.546l-.018.18h-6.93c.024.864.312 1.56.864 2.088s1.212.792 1.98.792c1.056 0 1.884-.528 2.484-1.584l1.476.72c-.396.744-.948 1.326-1.656 1.746-.696.42-1.488.63-2.376.63zm-2.646-5.76h5.058c-.048-.612-.3-1.116-.756-1.512-.444-.408-1.044-.612-1.8-.612-.624 0-1.164.192-1.62.576-.444.384-.738.9-.882 1.548zm15.715 3.024c0 .768-.336 1.416-1.008 1.944-.672.528-1.518.792-2.538.792-.888 0-1.668-.228-2.34-.684-.672-.468-1.152-1.08-1.44-1.836l1.476-.63c.216.528.528.942.936 1.242.42.288.876.432 1.368.432.528 0 .966-.114 1.314-.342.36-.228.54-.498.54-.81 0-.564-.432-.978-1.296-1.242l-1.512-.378c-1.716-.432-2.574-1.26-2.574-2.484 0-.804.324-1.446.972-1.926.66-.492 1.5-.738 2.52-.738.78 0 1.482.186 2.106.558.636.372 1.08.87 1.332 1.494l-1.476.612c-.168-.372-.444-.66-.828-.864-.372-.216-.792-.324-1.26-.324-.432 0-.822.108-1.17.324-.336.216-.504.48-.504.792 0 .504.474.864 1.422 1.08l1.332.342c1.752.432 2.628 1.314 2.628 2.646zm8.731 0c0 .768-.336 1.416-1.008 1.944-.672.528-1.518.792-2.538.792-.888 0-1.668-.228-2.34-.684-.672-.468-1.152-1.08-1.44-1.836l1.476-.63c.216.528.528.942.936 1.242.42.288.876.432 1.368.432.528 0 .966-.114 1.314-.342.36-.228.54-.498.54-.81 0-.564-.432-.978-1.296-1.242l-1.512-.378c-1.716-.432-2.574-1.26-2.574-2.484 0-.804.324-1.446.972-1.926.66-.492 1.5-.738 2.52-.738.78 0 1.482.186 2.106.558.636.372 1.08.87 1.332 1.494l-1.476.612c-.168-.372-.444-.66-.828-.864-.372-.216-.792-.324-1.26-.324-.432 0-.822.108-1.17.324-.336.216-.504.48-.504.792 0 .504.474.864 1.422 1.08l1.332.342c1.752.432 2.628 1.314 2.628 2.646zm6.049-10.584c.6 0 1.092.102 1.476.306l-.45 1.458c-.288-.144-.612-.216-.972-.216-.408 0-.744.144-1.008.432-.252.276-.378.648-.378 1.116v1.116h2.304v1.512h-2.304V44h-1.656v-7.308h-1.656V35.18h1.656v-1.278c0-.876.276-1.584.828-2.124.564-.54 1.284-.81 2.16-.81zM282.144 44h-1.584v-1.224h-.072c-.252.432-.642.792-1.17 1.08-.516.288-1.056.432-1.62.432-1.08 0-1.914-.306-2.502-.918-.576-.624-.864-1.506-.864-2.646V35.18h1.656v5.436c.036 1.44.762 2.16 2.178 2.16.66 0 1.212-.264 1.656-.792.444-.54.666-1.182.666-1.926V35.18h1.656V44zm4.211-12.888V44h-1.656V31.112h1.656zm4.214 0V44h-1.656V31.112h1.656zm10.442 4.068l-5.526 12.708h-1.71l2.052-4.446-3.636-8.262h1.8l2.628 6.336h.036l2.556-6.336h1.8zm12.866 6.372c0 .768-.336 1.416-1.008 1.944-.672.528-1.518.792-2.538.792-.888 0-1.668-.228-2.34-.684-.672-.468-1.152-1.08-1.44-1.836l1.476-.63c.216.528.528.942.936 1.242.42.288.876.432 1.368.432.528 0 .966-.114 1.314-.342.36-.228.54-.498.54-.81 0-.564-.432-.978-1.296-1.242l-1.512-.378c-1.716-.432-2.574-1.26-2.574-2.484 0-.804.324-1.446.972-1.926.66-.492 1.5-.738 2.52-.738.78 0 1.482.186 2.106.558.636.372 1.08.87 1.332 1.494l-1.476.612c-.168-.372-.444-.66-.828-.864-.372-.216-.792-.324-1.26-.324-.432 0-.822.108-1.17.324-.336.216-.504.48-.504.792 0 .504.474.864 1.422 1.08l1.332.342c1.752.432 2.628 1.314 2.628 2.646zm6.029 2.736c-1.296 0-2.364-.444-3.204-1.332-.84-.888-1.26-2.01-1.26-3.366 0-1.344.408-2.46 1.224-3.348.816-.9 1.86-1.35 3.132-1.35 1.308 0 2.346.426 3.114 1.278.78.84 1.17 2.022 1.17 3.546l-.018.18h-6.93c.024.864.312 1.56.864 2.088s1.212.792 1.98.792c1.056 0 1.884-.528 2.484-1.584l1.476.72c-.396.744-.948 1.326-1.656 1.746-.696.42-1.488.63-2.376.63zm-2.646-5.76h5.058c-.048-.612-.3-1.116-.756-1.512-.444-.408-1.044-.612-1.8-.612-.624 0-1.164.192-1.62.576-.444.384-.738.9-.882 1.548zm8.877-3.348h1.584v1.224h.072c.252-.432.636-.792 1.152-1.08.528-.288 1.074-.432 1.638-.432 1.08 0 1.908.312 2.484.936.588.612.882 1.488.882 2.628V44h-1.656v-5.436c-.036-1.44-.762-2.16-2.178-2.16-.66 0-1.212.27-1.656.81-.444.528-.666 1.164-.666 1.908V44h-1.656v-8.82zm13.331 8.964c-.72 0-1.32-.222-1.8-.666-.468-.444-.708-1.062-.72-1.854v-4.932H335.4V35.18h1.548v-2.7h1.656v2.7h2.16v1.512h-2.16v4.392c0 .588.114.99.342 1.206.228.204.486.306.774.306.132 0 .258-.012.378-.036.132-.036.252-.078.36-.126l.522 1.476c-.432.156-.936.234-1.512.234zm11.398 0c-.72 0-1.32-.222-1.8-.666-.468-.444-.708-1.062-.72-1.854v-4.932h-1.548V35.18h1.548v-2.7h1.656v2.7h2.16v1.512h-2.16v4.392c0 .588.114.99.342 1.206.228.204.486.306.774.306.132 0 .258-.012.378-.036.132-.036.252-.078.36-.126l.522 1.476c-.432.156-.936.234-1.512.234zm2.819-4.554c0-1.356.426-2.478 1.278-3.366.864-.888 1.95-1.332 3.258-1.332s2.388.444 3.24 1.332c.864.888 1.296 2.01 1.296 3.366 0 1.368-.432 2.49-1.296 3.366-.852.888-1.932 1.332-3.24 1.332-1.308 0-2.394-.444-3.258-1.332-.852-.888-1.278-2.01-1.278-3.366zm1.656 0c0 .948.276 1.716.828 2.304.552.588 1.236.882 2.052.882.816 0 1.5-.294 2.052-.882.552-.588.828-1.356.828-2.304 0-.936-.276-1.698-.828-2.286-.564-.6-1.248-.9-2.052-.9s-1.488.3-2.052.9c-.552.588-.828 1.35-.828 2.286zm17.448 4.554c-.72 0-1.32-.222-1.8-.666-.468-.444-.708-1.062-.72-1.854v-4.932h-1.548V35.18h1.548v-2.7h1.656v2.7h2.16v1.512h-2.16v4.392c0 .588.114.99.342 1.206.228.204.486.306.774.306.132 0 .258-.012.378-.036.132-.036.252-.078.36-.126l.522 1.476c-.432.156-.936.234-1.512.234zm3.499-13.032h1.656v4.068l-.072 1.224h.072c.252-.432.636-.792 1.152-1.08.528-.288 1.074-.432 1.638-.432 1.08 0 1.908.312 2.484.936.588.612.882 1.488.882 2.628V44h-1.656v-5.22c0-1.584-.702-2.376-2.106-2.376-.672 0-1.242.282-1.71.846-.456.552-.684 1.2-.684 1.944V44h-1.656V31.112zm14.256 13.176c-1.296 0-2.364-.444-3.204-1.332-.84-.888-1.26-2.01-1.26-3.366 0-1.344.408-2.46 1.224-3.348.816-.9 1.86-1.35 3.132-1.35 1.308 0 2.346.426 3.114 1.278.78.84 1.17 2.022 1.17 3.546l-.018.18h-6.93c.024.864.312 1.56.864 2.088s1.212.792 1.98.792c1.056 0 1.884-.528 2.484-1.584l1.476.72c-.396.744-.948 1.326-1.656 1.746-.696.42-1.488.63-2.376.63zm-2.646-5.76h5.058c-.048-.612-.3-1.116-.756-1.512-.444-.408-1.044-.612-1.8-.612-.624 0-1.164.192-1.62.576-.444.384-.738.9-.882 1.548zM402.925 44h-1.656v-8.82h1.584v1.224h.072c.252-.432.636-.792 1.152-1.08.528-.288 1.05-.432 1.566-.432.648 0 1.218.15 1.71.45.492.3.852.714 1.08 1.242.732-1.128 1.746-1.692 3.042-1.692 1.02 0 1.806.312 2.358.936.552.624.828 1.512.828 2.664V44h-1.656v-5.256c0-.828-.15-1.422-.45-1.782-.3-.372-.804-.558-1.512-.558-.636 0-1.17.27-1.602.81-.432.54-.648 1.176-.648 1.908V44h-1.656v-5.256c0-.828-.15-1.422-.45-1.782-.3-.372-.804-.558-1.512-.558-.636 0-1.17.27-1.602.81-.432.54-.648 1.176-.648 1.908V44zm15.33-2.7c0 .432.18.792.54 1.08.372.288.804.432 1.296.432.696 0 1.314-.258 1.854-.774.552-.516.828-1.122.828-1.818-.516-.408-1.236-.612-2.16-.612-.672 0-1.236.162-1.692.486-.444.324-.666.726-.666 1.206zm2.142-6.408c1.224 0 2.19.33 2.898.99.708.648 1.062 1.542 1.062 2.682V44h-1.584v-1.224h-.072c-.684 1.008-1.596 1.512-2.736 1.512-.972 0-1.788-.288-2.448-.864-.648-.576-.972-1.296-.972-2.16 0-.912.342-1.638 1.026-2.178.696-.54 1.62-.81 2.772-.81.984 0 1.794.18 2.43.54v-.378c0-.576-.228-1.062-.684-1.458-.456-.408-.99-.612-1.602-.612-.924 0-1.656.39-2.196 1.17l-1.458-.918c.804-1.152 1.992-1.728 3.564-1.728zm8.51-2.754c0 .324-.114.6-.342.828-.228.228-.504.342-.828.342-.324 0-.6-.114-.828-.342-.228-.228-.342-.504-.342-.828 0-.324.114-.6.342-.828.228-.228.504-.342.828-.342.324 0 .6.114.828.342.228.228.342.504.342.828zm-.342 3.042V44h-1.656v-8.82h1.656zm4.351-4.068V44h-1.656V31.112h1.656zm9.195 1.026c0 .324-.114.6-.342.828-.228.228-.504.342-.828.342-.324 0-.6-.114-.828-.342-.228-.228-.342-.504-.342-.828 0-.324.114-.6.342-.828.228-.228.504-.342.828-.342.324 0 .6.114.828.342.228.228.342.504.342.828zm-.342 3.042V44h-1.656v-8.82h1.656zm6.567 7.596c.816 0 1.482-.294 1.998-.882.54-.588.81-1.356.81-2.304 0-.924-.27-1.686-.81-2.286-.528-.6-1.194-.9-1.998-.9-.792 0-1.458.3-1.998.9-.54.6-.81 1.362-.81 2.286 0 .936.27 1.698.81 2.286.54.6 1.206.9 1.998.9zm-.27 1.512c-1.152 0-2.142-.456-2.97-1.368-.816-.924-1.224-2.034-1.224-3.33 0-1.296.408-2.406 1.224-3.33.828-.912 1.818-1.368 2.97-1.368.648 0 1.236.138 1.764.414.54.276.954.642 1.242 1.098h.072l-.072-1.224v-4.068h1.656V44h-1.584v-1.224h-.072c-.288.456-.702.822-1.242 1.098-.528.276-1.116.414-1.764.414zM156.506 66h-1.656V53.112h1.656v5.526h6.444v-5.526h1.656V66h-1.656v-5.814h-6.444V66zm14.896.288c-1.296 0-2.364-.444-3.204-1.332-.84-.888-1.26-2.01-1.26-3.366 0-1.344.408-2.46 1.224-3.348.816-.9 1.86-1.35 3.132-1.35 1.308 0 2.346.426 3.114 1.278.78.84 1.17 2.022 1.17 3.546l-.018.18h-6.93c.024.864.312 1.56.864 2.088s1.212.792 1.98.792c1.056 0 1.884-.528 2.484-1.584l1.476.72c-.396.744-.948 1.326-1.656 1.746-.696.42-1.488.63-2.376.63zm-2.646-5.76h5.058c-.048-.612-.3-1.116-.756-1.512-.444-.408-1.044-.612-1.8-.612-.624 0-1.164.192-1.62.576-.444.384-.738.9-.882 1.548zm10.17 2.772c0 .432.18.792.54 1.08.372.288.804.432 1.296.432.696 0 1.314-.258 1.854-.774.552-.516.828-1.122.828-1.818-.516-.408-1.236-.612-2.16-.612-.672 0-1.236.162-1.692.486-.444.324-.666.726-.666 1.206zm2.142-6.408c1.224 0 2.19.33 2.898.99.708.648 1.062 1.542 1.062 2.682V66h-1.584v-1.224h-.072c-.684 1.008-1.596 1.512-2.736 1.512-.972 0-1.788-.288-2.448-.864-.648-.576-.972-1.296-.972-2.16 0-.912.342-1.638 1.026-2.178.696-.54 1.62-.81 2.772-.81.984 0 1.794.18 2.43.54v-.378c0-.576-.228-1.062-.684-1.458-.456-.408-.99-.612-1.602-.612-.924 0-1.656.39-2.196 1.17l-1.458-.918c.804-1.152 1.992-1.728 3.564-1.728zm10.24 7.884c.816 0 1.482-.294 1.998-.882.54-.588.81-1.356.81-2.304 0-.924-.27-1.686-.81-2.286-.528-.6-1.194-.9-1.998-.9-.792 0-1.458.3-1.998.9-.54.6-.81 1.362-.81 2.286 0 .936.27 1.698.81 2.286.54.6 1.206.9 1.998.9zm-.27 1.512c-1.152 0-2.142-.456-2.97-1.368-.816-.924-1.224-2.034-1.224-3.33 0-1.296.408-2.406 1.224-3.33.828-.912 1.818-1.368 2.97-1.368.648 0 1.236.138 1.764.414.54.276.954.642 1.242 1.098h.072l-.072-1.224v-4.068h1.656V66h-1.584v-1.224h-.072c-.288.456-.702.822-1.242 1.098-.528.276-1.116.414-1.764.414zm11.212-4.698c0-1.356.426-2.478 1.278-3.366.864-.888 1.95-1.332 3.258-1.332s2.388.444 3.24 1.332c.864.888 1.296 2.01 1.296 3.366 0 1.368-.432 2.49-1.296 3.366-.852.888-1.932 1.332-3.24 1.332-1.308 0-2.394-.444-3.258-1.332-.852-.888-1.278-2.01-1.278-3.366zm1.656 0c0 .948.276 1.716.828 2.304.552.588 1.236.882 2.052.882.816 0 1.5-.294 2.052-.882.552-.588.828-1.356.828-2.304 0-.936-.276-1.698-.828-2.286-.564-.6-1.248-.9-2.052-.9s-1.488.3-2.052.9c-.552.588-.828 1.35-.828 2.286zM217.475 66h-1.656l-3.564-8.82h1.8l2.592 6.84h.036l2.628-6.84h1.764l-3.6 8.82zm8.917.288c-1.296 0-2.364-.444-3.204-1.332-.84-.888-1.26-2.01-1.26-3.366 0-1.344.408-2.46 1.224-3.348.816-.9 1.86-1.35 3.132-1.35 1.308 0 2.346.426 3.114 1.278.78.84 1.17 2.022 1.17 3.546l-.018.18h-6.93c.024.864.312 1.56.864 2.088s1.212.792 1.98.792c1.056 0 1.884-.528 2.484-1.584l1.476.72c-.396.744-.948 1.326-1.656 1.746-.696.42-1.488.63-2.376.63zm-2.646-5.76h5.058c-.048-.612-.3-1.116-.756-1.512-.444-.408-1.044-.612-1.8-.612-.624 0-1.164.192-1.62.576-.444.384-.738.9-.882 1.548zM234.279 66h-1.656v-8.82h1.584v1.44h.072c.168-.468.51-.864 1.026-1.188.528-.336 1.044-.504 1.548-.504.48 0 .888.072 1.224.216l-.504 1.602c-.204-.084-.528-.126-.972-.126-.624 0-1.17.252-1.638.756-.456.504-.684 1.092-.684 1.764V66zm13.41.144c-.72 0-1.32-.222-1.8-.666-.468-.444-.708-1.062-.72-1.854v-4.932h-1.548V57.18h1.548v-2.7h1.656v2.7h2.16v1.512h-2.16v4.392c0 .588.114.99.342 1.206.228.204.486.306.774.306.132 0 .258-.012.378-.036.132-.036.252-.078.36-.126l.522 1.476c-.432.156-.936.234-1.512.234zm2.819-4.554c0-1.356.426-2.478 1.278-3.366.864-.888 1.95-1.332 3.258-1.332s2.388.444 3.24 1.332c.864.888 1.296 2.01 1.296 3.366 0 1.368-.432 2.49-1.296 3.366-.852.888-1.932 1.332-3.24 1.332-1.308 0-2.394-.444-3.258-1.332-.852-.888-1.278-2.01-1.278-3.366zm1.656 0c0 .948.276 1.716.828 2.304.552.588 1.236.882 2.052.882.816 0 1.5-.294 2.052-.882.552-.588.828-1.356.828-2.304 0-.936-.276-1.698-.828-2.286-.564-.6-1.248-.9-2.052-.9s-1.488.3-2.052.9c-.552.588-.828 1.35-.828 2.286zm21.839-4.41l-5.526 12.708h-1.71l2.052-4.446-3.636-8.262h1.8l2.628 6.336h.036l2.556-6.336h1.8zm.766 4.41c0-1.356.426-2.478 1.278-3.366.864-.888 1.95-1.332 3.258-1.332s2.388.444 3.24 1.332c.864.888 1.296 2.01 1.296 3.366 0 1.368-.432 2.49-1.296 3.366-.852.888-1.932 1.332-3.24 1.332-1.308 0-2.394-.444-3.258-1.332-.852-.888-1.278-2.01-1.278-3.366zm1.656 0c0 .948.276 1.716.828 2.304.552.588 1.236.882 2.052.882.816 0 1.5-.294 2.052-.882.552-.588.828-1.356.828-2.304 0-.936-.276-1.698-.828-2.286-.564-.6-1.248-.9-2.052-.9s-1.488.3-2.052.9c-.552.588-.828 1.35-.828 2.286zM293.537 66h-1.584v-1.224h-.072c-.252.432-.642.792-1.17 1.08-.516.288-1.056.432-1.62.432-1.08 0-1.914-.306-2.502-.918-.576-.624-.864-1.506-.864-2.646V57.18h1.656v5.436c.036 1.44.762 2.16 2.178 2.16.66 0 1.212-.264 1.656-.792.444-.54.666-1.182.666-1.926V57.18h1.656V66zm4.212 0h-1.656v-8.82h1.584v1.44h.072c.168-.468.51-.864 1.026-1.188.528-.336 1.044-.504 1.548-.504.48 0 .888.072 1.224.216l-.504 1.602c-.204-.084-.528-.126-.972-.126-.624 0-1.17.252-1.638.756-.456.504-.684 1.092-.684 1.764V66zm11.574 0h-1.656v-8.82h1.584v1.224h.072c.252-.432.636-.792 1.152-1.08.528-.288 1.05-.432 1.566-.432.648 0 1.218.15 1.71.45.492.3.852.714 1.08 1.242.732-1.128 1.746-1.692 3.042-1.692 1.02 0 1.806.312 2.358.936.552.624.828 1.512.828 2.664V66h-1.656v-5.256c0-.828-.15-1.422-.45-1.782-.3-.372-.804-.558-1.512-.558-.636 0-1.17.27-1.602.81-.432.54-.648 1.176-.648 1.908V66h-1.656v-5.256c0-.828-.15-1.422-.45-1.782-.3-.372-.804-.558-1.512-.558-.636 0-1.17.27-1.602.81-.432.54-.648 1.176-.648 1.908V66zm15.33-2.7c0 .432.18.792.54 1.08.372.288.804.432 1.296.432.696 0 1.314-.258 1.854-.774.552-.516.828-1.122.828-1.818-.516-.408-1.236-.612-2.16-.612-.672 0-1.236.162-1.692.486-.444.324-.666.726-.666 1.206zm2.142-6.408c1.224 0 2.19.33 2.898.99.708.648 1.062 1.542 1.062 2.682V66h-1.584v-1.224h-.072c-.684 1.008-1.596 1.512-2.736 1.512-.972 0-1.788-.288-2.448-.864-.648-.576-.972-1.296-.972-2.16 0-.912.342-1.638 1.026-2.178.696-.54 1.62-.81 2.772-.81.984 0 1.794.18 2.43.54v-.378c0-.576-.228-1.062-.684-1.458-.456-.408-.99-.612-1.602-.612-.924 0-1.656.39-2.196 1.17l-1.458-.918c.804-1.152 1.992-1.728 3.564-1.728zm8.51-2.754c0 .324-.114.6-.342.828-.228.228-.504.342-.828.342-.324 0-.6-.114-.828-.342-.228-.228-.342-.504-.342-.828 0-.324.114-.6.342-.828.228-.228.504-.342.828-.342.324 0 .6.114.828.342.228.228.342.504.342.828zm-.342 3.042V66h-1.656v-8.82h1.656zm4.351-4.068V66h-1.656V53.112h1.656zm10.545 13.032c-.72 0-1.32-.222-1.8-.666-.468-.444-.708-1.062-.72-1.854v-4.932h-1.548V57.18h1.548v-2.7h1.656v2.7h2.16v1.512h-2.16v4.392c0 .588.114.99.342 1.206.228.204.486.306.774.306.132 0 .258-.012.378-.036.132-.036.252-.078.36-.126l.522 1.476c-.432.156-.936.234-1.512.234zm2.819-4.554c0-1.356.426-2.478 1.278-3.366.864-.888 1.95-1.332 3.258-1.332s2.388.444 3.24 1.332c.864.888 1.296 2.01 1.296 3.366 0 1.368-.432 2.49-1.296 3.366-.852.888-1.932 1.332-3.24 1.332-1.308 0-2.394-.444-3.258-1.332-.852-.888-1.278-2.01-1.278-3.366zm1.656 0c0 .948.276 1.716.828 2.304.552.588 1.236.882 2.052.882.816 0 1.5-.294 2.052-.882.552-.588.828-1.356.828-2.304 0-.936-.276-1.698-.828-2.286-.564-.6-1.248-.9-2.052-.9s-1.488.3-2.052.9c-.552.588-.828 1.35-.828 2.286zm17.988 4.698c-1.308 0-2.394-.444-3.258-1.332-.852-.912-1.278-2.034-1.278-3.366 0-1.356.426-2.478 1.278-3.366.864-.888 1.95-1.332 3.258-1.332.9 0 1.686.228 2.358.684.672.444 1.176 1.062 1.512 1.854l-1.512.63c-.468-1.104-1.29-1.656-2.466-1.656-.756 0-1.41.306-1.962.918-.54.612-.81 1.368-.81 2.268 0 .9.27 1.656.81 2.268.552.612 1.206.918 1.962.918 1.212 0 2.064-.552 2.556-1.656l1.476.63c-.324.792-.834 1.416-1.53 1.872-.684.444-1.482.666-2.394.666zm5.912-13.176h1.656v4.068l-.072 1.224h.072c.252-.432.636-.792 1.152-1.08.528-.288 1.074-.432 1.638-.432 1.08 0 1.908.312 2.484.936.588.612.882 1.488.882 2.628V66h-1.656v-5.22c0-1.584-.702-2.376-2.106-2.376-.672 0-1.242.282-1.71.846-.456.552-.684 1.2-.684 1.944V66h-1.656V53.112zm14.256 13.176c-1.296 0-2.364-.444-3.204-1.332-.84-.888-1.26-2.01-1.26-3.366 0-1.344.408-2.46 1.224-3.348.816-.9 1.86-1.35 3.132-1.35 1.308 0 2.346.426 3.114 1.278.78.84 1.17 2.022 1.17 3.546l-.018.18h-6.93c.024.864.312 1.56.864 2.088s1.212.792 1.98.792c1.056 0 1.884-.528 2.484-1.584l1.476.72c-.396.744-.948 1.326-1.656 1.746-.696.42-1.488.63-2.376.63zm-2.646-5.76h5.058c-.048-.612-.3-1.116-.756-1.512-.444-.408-1.044-.612-1.8-.612-.624 0-1.164.192-1.62.576-.444.384-.738.9-.882 1.548zm12.996 5.76c-1.308 0-2.394-.444-3.258-1.332-.852-.912-1.278-2.034-1.278-3.366 0-1.356.426-2.478 1.278-3.366.864-.888 1.95-1.332 3.258-1.332.9 0 1.686.228 2.358.684.672.444 1.176 1.062 1.512 1.854l-1.512.63c-.468-1.104-1.29-1.656-2.466-1.656-.756 0-1.41.306-1.962.918-.54.612-.81 1.368-.81 2.268 0 .9.27 1.656.81 2.268.552.612 1.206.918 1.962.918 1.212 0 2.064-.552 2.556-1.656l1.476.63c-.324.792-.834 1.416-1.53 1.872-.684.444-1.482.666-2.394.666zM416.511 66h-1.998l-2.754-4.158-1.35 1.332V66h-1.656V53.112h1.656v7.938l3.816-3.87h2.124v.072l-3.438 3.42 3.6 5.256V66z"/>
</svg>
