<svg xmlns="http://www.w3.org/2000/svg" width="411" height="59" fill="none" viewBox="0 0 411 59">
    <rect width="411" height="59" fill="#5F26E1" rx="16"/>
    <path fill="#fff" d="M174.191 38.384c-.736 0-1.44-.104-2.112-.312-.672-.208-1.288-.52-1.848-.936-.56-.416-1.048-.92-1.464-1.512-.416-.608-.744-1.312-.984-2.112l3.048-1.2c.224.864.616 1.584 1.176 2.16.56.56 1.296.84 2.208.84.336 0 .656-.04.96-.12.32-.096.6-.224.84-.384.256-.176.456-.392.6-.648.144-.256.216-.552.216-.888 0-.32-.056-.608-.168-.864-.112-.256-.304-.496-.576-.72-.256-.224-.6-.44-1.032-.648-.416-.208-.936-.424-1.56-.648l-1.056-.384c-.464-.16-.936-.376-1.416-.648-.464-.272-.888-.6-1.272-.984s-.704-.832-.96-1.344c-.24-.528-.36-1.12-.36-1.776 0-.672.128-1.296.384-1.872.272-.592.648-1.104 1.128-1.536.496-.448 1.08-.792 1.752-1.032.688-.256 1.448-.384 2.28-.384.864 0 1.608.12 2.232.36.64.224 1.176.52 1.608.888.448.352.808.744 1.08 1.176.272.432.472.84.6 1.224l-2.856 1.2c-.16-.48-.456-.912-.888-1.296-.416-.384-.992-.576-1.728-.576-.704 0-1.288.168-1.752.504-.464.32-.696.744-.696 1.272 0 .512.224.952.672 1.32.448.352 1.16.696 2.136 1.032l1.08.36c.688.24 1.312.52 1.872.84.576.304 1.064.672 1.464 1.104.416.432.728.928.936 1.488.224.544.336 1.176.336 1.896 0 .896-.184 1.672-.552 2.328-.352.64-.808 1.168-1.368 1.584-.56.416-1.192.728-1.896.936-.704.208-1.392.312-2.064.312zm10.637-13.848c-.272 0-.536-.048-.792-.144-.24-.112-.456-.256-.648-.432-.176-.192-.32-.408-.432-.648-.096-.24-.144-.504-.144-.792 0-.288.048-.552.144-.792.112-.24.256-.448.432-.624.192-.192.408-.336.648-.432.256-.112.52-.168.792-.168.56 0 1.04.2 1.44.6.4.384.6.856.6 1.416 0 .56-.2 1.04-.6 1.44-.4.384-.88.576-1.44.576zM183.268 38V26.24h3.144V38h-3.144zm12.046 5.568c-.832 0-1.576-.112-2.232-.336-.64-.208-1.2-.488-1.68-.84-.48-.336-.88-.712-1.2-1.128-.32-.416-.552-.832-.696-1.248l3-1.2c.224.624.592 1.104 1.104 1.44.512.352 1.08.528 1.704.528.992 0 1.776-.312 2.352-.936.576-.608.864-1.464.864-2.568v-.816h-.192c-.368.512-.856.92-1.464 1.224-.592.288-1.296.432-2.112.432-.704 0-1.392-.144-2.064-.432-.656-.288-1.24-.696-1.752-1.224-.512-.544-.928-1.192-1.248-1.944-.32-.752-.48-1.592-.48-2.52 0-.928.16-1.768.48-2.52.32-.768.736-1.416 1.248-1.944.512-.544 1.096-.96 1.752-1.248.672-.288 1.36-.432 2.064-.432.816 0 1.52.152 2.112.456.608.288 1.096.688 1.464 1.2h.192V26.24h3v10.92c0 .992-.152 1.88-.456 2.664-.304.8-.728 1.472-1.272 2.016-.544.56-1.2.984-1.968 1.272-.752.304-1.592.456-2.52.456zm.12-8.28c.384 0 .76-.072 1.128-.216.384-.144.72-.352 1.008-.624.288-.288.52-.632.696-1.032.176-.416.264-.888.264-1.416 0-.528-.088-1-.264-1.416-.176-.416-.408-.76-.696-1.032-.288-.288-.624-.504-1.008-.648-.368-.144-.744-.216-1.128-.216-.384 0-.76.072-1.128.216-.368.144-.696.36-.984.648-.288.288-.52.64-.696 1.056-.176.4-.264.864-.264 1.392 0 .528.088 1 .264 1.416.176.4.408.744.696 1.032.288.272.616.48.984.624.368.144.744.216 1.128.216zm12.448-7.512h.192c.368-.592.864-1.056 1.488-1.392.624-.352 1.336-.528 2.136-.528.736 0 1.384.12 1.944.36s1.016.584 1.368 1.032c.368.432.64.96.816 1.584.192.608.288 1.288.288 2.04V38h-3.144v-6.744c0-.848-.192-1.472-.576-1.872-.368-.416-.912-.624-1.632-.624-.432 0-.816.096-1.152.288-.32.176-.6.424-.84.744-.224.304-.4.672-.528 1.104-.112.416-.168.864-.168 1.344V38h-3.144V26.24h2.952v1.536zm19.295-3.24c-.272 0-.536-.048-.792-.144-.24-.112-.456-.256-.648-.432-.176-.192-.32-.408-.432-.648-.096-.24-.144-.504-.144-.792 0-.288.048-.552.144-.792.112-.24.256-.448.432-.624.192-.192.408-.336.648-.432.256-.112.52-.168.792-.168.56 0 1.04.2 1.44.6.4.384.6.856.6 1.416 0 .56-.2 1.04-.6 1.44-.4.384-.88.576-1.44.576zM225.617 38V26.24h3.144V38h-3.144zm9.691-10.224h.192c.368-.592.864-1.056 1.488-1.392.624-.352 1.336-.528 2.136-.528.736 0 1.384.12 1.944.36s1.016.584 1.368 1.032c.368.432.64.96.816 1.584.192.608.288 1.288.288 2.04V38h-3.144v-6.744c0-.848-.192-1.472-.576-1.872-.368-.416-.912-.624-1.632-.624-.432 0-.816.096-1.152.288-.32.176-.6.424-.84.744-.224.304-.4.672-.528 1.104-.112.416-.168.864-.168 1.344V38h-3.144V26.24h2.952v1.536z"/>
</svg>
