<svg xmlns="http://www.w3.org/2000/svg" width="123" height="42" fill="none" viewBox="0 0 123 42">
    <rect width="123" height="42" fill="#1365D5" rx="21"/>
    <path fill="#fff" d="M41.594 18.916v3.612h-.014c0 1.008-.672 2.478-2.352 2.478-1.092 0-1.848-.672-1.848-2.45v-3.64h-1.204v4.144c0 2.002.994 3.08 2.632 3.08 1.232 0 2.142-.616 2.8-1.386L41.65 26h1.134v-7.084h-1.19zm3.358 10.304h1.204v-4.83c.434 1.008 1.511 1.75 2.842 1.75 2.03 0 3.598-1.652 3.598-3.696 0-2.016-1.568-3.668-3.598-3.668-1.33 0-2.408.742-2.842 1.75l-.07-1.61h-1.134V29.22zm1.316-6.776c0-1.372 1.105-2.534 2.547-2.534 1.457 0 2.577 1.162 2.577 2.534 0 1.4-1.12 2.562-2.577 2.562-1.441 0-2.547-1.162-2.547-2.562zm7.771 0c0 2.044 1.554 3.696 3.584 3.696 1.33 0 2.409-.756 2.857-1.75l.056 1.61h1.148V15.5H60.48v5.026c-.448-.994-1.526-1.75-2.856-1.75-2.03 0-3.585 1.652-3.585 3.668zm1.204 0c0-1.372 1.12-2.534 2.563-2.534 1.456 0 2.547 1.162 2.547 2.534 0 1.4-1.092 2.562-2.547 2.562-1.442 0-2.563-1.162-2.563-2.562zm8.472 0c0 2.044 1.554 3.696 3.584 3.696 1.33 0 2.408-.756 2.856-1.75l.056 1.61h1.148v-7.084h-1.148l-.056 1.61c-.448-.994-1.526-1.75-2.856-1.75-2.03 0-3.584 1.652-3.584 3.668zm1.204 0c0-1.372 1.12-2.534 2.562-2.534 1.456 0 2.548 1.162 2.548 2.534 0 1.4-1.092 2.562-2.548 2.562-1.442 0-2.562-1.162-2.562-2.562zm11.912-3.528h-1.47v-2.1h-1.19v2.1h-1.008v1.134h1.008V26h1.19v-5.95h1.47v-1.134zm8.248 3.612c0-2.002-1.372-3.752-3.542-3.752-2.1 0-3.542 1.652-3.542 3.64 0 2.142 1.512 3.724 3.654 3.724 1.862 0 2.954-1.232 3.234-2.198l-1.064-.14c-.308.63-1.008 1.26-2.17 1.26-1.456 0-2.408-.938-2.45-2.226h5.88v-.308zm-3.542-2.674c1.386 0 2.268 1.008 2.338 2.114h-4.676c.042-1.162 1.008-2.114 2.338-2.114z"/>
</svg>
